<mxfile host="app.diagrams.net" agent="Mozilla/5.0 (Windows NT 10.0; Win64; x64) AppleWebKit/537.36 (KHTML, like Gecko) Chrome/137.0.0.0 Safari/537.36 Edg/137.0.0.0" version="27.1.3">
  <diagram id="3k4GHWGmh4EHC1JbU0jb" name="Page-1">
    <mxGraphModel dx="1493" dy="827" grid="1" gridSize="10" guides="1" tooltips="1" connect="1" arrows="1" fold="1" page="1" pageScale="1" pageWidth="850" pageHeight="1100" math="0" shadow="0">
      <root>
        <mxCell id="0" />
        <mxCell id="1" parent="0" />
        <mxCell id="JEKIaxqcYG2OeNhr2V8x-1" value="Home" style="strokeWidth=1;shadow=0;dashed=0;align=center;html=1;shape=mxgraph.mockup.containers.window;align=left;verticalAlign=top;spacingLeft=8;strokeColor2=#008cff;strokeColor3=#c4c4c4;fontColor=#666666;mainText=;fontSize=17;labelBackgroundColor=none;whiteSpace=wrap;" vertex="1" parent="1">
          <mxGeometry x="50" y="220" width="550" height="380" as="geometry" />
        </mxCell>
        <mxCell id="JEKIaxqcYG2OeNhr2V8x-2" value="FAQ" style="strokeWidth=1;shadow=0;dashed=0;align=center;html=1;shape=mxgraph.mockup.containers.window;align=left;verticalAlign=top;spacingLeft=8;strokeColor2=#008cff;strokeColor3=#c4c4c4;fontColor=#666666;mainText=;fontSize=17;labelBackgroundColor=none;whiteSpace=wrap;" vertex="1" parent="1">
          <mxGeometry x="1280" y="220" width="550" height="510" as="geometry" />
        </mxCell>
        <mxCell id="JEKIaxqcYG2OeNhr2V8x-3" value="Home" style="strokeWidth=1;shadow=0;dashed=0;align=center;html=1;shape=mxgraph.mockup.containers.window;align=left;verticalAlign=top;spacingLeft=8;strokeColor2=#008cff;strokeColor3=#c4c4c4;fontColor=#666666;mainText=;fontSize=17;labelBackgroundColor=none;whiteSpace=wrap;" vertex="1" parent="1">
          <mxGeometry x="660" y="220" width="550" height="740" as="geometry" />
        </mxCell>
        <mxCell id="JEKIaxqcYG2OeNhr2V8x-4" value="" style="rounded=1;whiteSpace=wrap;html=1;" vertex="1" parent="1">
          <mxGeometry x="195" y="420" width="185" height="20" as="geometry" />
        </mxCell>
        <mxCell id="JEKIaxqcYG2OeNhr2V8x-5" value="&lt;font style=&quot;font-size: 18px;&quot;&gt;Start your search here!&lt;/font&gt;" style="text;html=1;align=center;verticalAlign=middle;whiteSpace=wrap;rounded=0;" vertex="1" parent="1">
          <mxGeometry x="260" y="380" width="110" height="30" as="geometry" />
        </mxCell>
        <mxCell id="JEKIaxqcYG2OeNhr2V8x-6" value="Submit" style="rounded=1;fillColor=#0057D8;strokeColor=none;html=1;whiteSpace=wrap;fontColor=#ffffff;align=center;verticalAlign=middle;fontStyle=0;fontSize=12;sketch=0;" vertex="1" parent="1">
          <mxGeometry x="390" y="420" width="86" height="20" as="geometry" />
        </mxCell>
        <mxCell id="JEKIaxqcYG2OeNhr2V8x-7" value="Home" style="text;html=1;align=center;verticalAlign=middle;whiteSpace=wrap;rounded=0;" vertex="1" parent="1">
          <mxGeometry x="60" y="250" width="60" height="30" as="geometry" />
        </mxCell>
        <mxCell id="JEKIaxqcYG2OeNhr2V8x-8" value="FAQ" style="text;html=1;align=center;verticalAlign=middle;whiteSpace=wrap;rounded=0;" vertex="1" parent="1">
          <mxGeometry x="120" y="251" width="60" height="30" as="geometry" />
        </mxCell>
        <mxCell id="JEKIaxqcYG2OeNhr2V8x-9" value="" style="html=1;labelBackgroundColor=#ffffff;startArrow=none;startFill=0;startSize=6;endArrow=classic;endFill=1;endSize=6;jettySize=auto;orthogonalLoop=1;strokeWidth=1;dashed=1;fontSize=14;rounded=0;exitX=1;exitY=0.5;exitDx=0;exitDy=0;entryX=-0.001;entryY=0.259;entryDx=0;entryDy=0;entryPerimeter=0;" edge="1" parent="1" source="JEKIaxqcYG2OeNhr2V8x-6" target="JEKIaxqcYG2OeNhr2V8x-3">
          <mxGeometry width="60" height="60" relative="1" as="geometry">
            <mxPoint x="440" y="480" as="sourcePoint" />
            <mxPoint x="500" y="420" as="targetPoint" />
          </mxGeometry>
        </mxCell>
        <mxCell id="JEKIaxqcYG2OeNhr2V8x-10" value="" style="rounded=1;whiteSpace=wrap;html=1;" vertex="1" parent="1">
          <mxGeometry x="810" y="410" width="185" height="20" as="geometry" />
        </mxCell>
        <mxCell id="JEKIaxqcYG2OeNhr2V8x-11" value="&lt;font style=&quot;font-size: 18px;&quot;&gt;Start your search here!&lt;/font&gt;" style="text;html=1;align=center;verticalAlign=middle;whiteSpace=wrap;rounded=0;" vertex="1" parent="1">
          <mxGeometry x="875" y="370" width="110" height="30" as="geometry" />
        </mxCell>
        <mxCell id="JEKIaxqcYG2OeNhr2V8x-12" value="Submit" style="rounded=1;fillColor=#0057D8;strokeColor=none;html=1;whiteSpace=wrap;fontColor=#ffffff;align=center;verticalAlign=middle;fontStyle=0;fontSize=12;sketch=0;" vertex="1" parent="1">
          <mxGeometry x="1005" y="410" width="86" height="20" as="geometry" />
        </mxCell>
        <mxCell id="JEKIaxqcYG2OeNhr2V8x-13" value="Home" style="text;html=1;align=center;verticalAlign=middle;whiteSpace=wrap;rounded=0;" vertex="1" parent="1">
          <mxGeometry x="670" y="251" width="60" height="30" as="geometry" />
        </mxCell>
        <mxCell id="JEKIaxqcYG2OeNhr2V8x-14" value="FAQ" style="text;html=1;align=center;verticalAlign=middle;whiteSpace=wrap;rounded=0;" vertex="1" parent="1">
          <mxGeometry x="730" y="252" width="60" height="30" as="geometry" />
        </mxCell>
        <mxCell id="JEKIaxqcYG2OeNhr2V8x-15" value="Position&lt;div&gt;Organization&lt;/div&gt;&lt;div&gt;Location&lt;/div&gt;" style="html=1;shadow=0;dashed=0;shape=mxgraph.bootstrap.rrect;rSize=5;strokeColor=#DFDFDF;html=1;whiteSpace=wrap;fillColor=#ffffff;fontColor=#000000;verticalAlign=bottom;align=left;spacing=20;fontSize=14;" vertex="1" parent="1">
          <mxGeometry x="710" y="480" width="130" height="170" as="geometry" />
        </mxCell>
        <mxCell id="JEKIaxqcYG2OeNhr2V8x-16" value="Image cap" style="html=1;shadow=0;dashed=0;shape=mxgraph.bootstrap.topButton;rSize=5;perimeter=none;whiteSpace=wrap;fillColor=#868E96;strokeColor=#DFDFDF;fontColor=#DEE2E6;resizeWidth=1;fontSize=18;" vertex="1" parent="JEKIaxqcYG2OeNhr2V8x-15">
          <mxGeometry width="130" height="100" relative="1" as="geometry" />
        </mxCell>
        <mxCell id="JEKIaxqcYG2OeNhr2V8x-17" value="Position&lt;div&gt;Organization&lt;/div&gt;&lt;div&gt;Location&lt;/div&gt;" style="html=1;shadow=0;dashed=0;shape=mxgraph.bootstrap.rrect;rSize=5;strokeColor=#DFDFDF;html=1;whiteSpace=wrap;fillColor=#ffffff;fontColor=#000000;verticalAlign=bottom;align=left;spacing=20;fontSize=14;" vertex="1" parent="1">
          <mxGeometry x="870" y="480" width="130" height="170" as="geometry" />
        </mxCell>
        <mxCell id="JEKIaxqcYG2OeNhr2V8x-18" value="Image cap" style="html=1;shadow=0;dashed=0;shape=mxgraph.bootstrap.topButton;rSize=5;perimeter=none;whiteSpace=wrap;fillColor=#868E96;strokeColor=#DFDFDF;fontColor=#DEE2E6;resizeWidth=1;fontSize=18;" vertex="1" parent="JEKIaxqcYG2OeNhr2V8x-17">
          <mxGeometry width="130" height="100" relative="1" as="geometry" />
        </mxCell>
        <mxCell id="JEKIaxqcYG2OeNhr2V8x-19" value="Position&lt;div&gt;Organization&lt;/div&gt;&lt;div&gt;Location&lt;/div&gt;" style="html=1;shadow=0;dashed=0;shape=mxgraph.bootstrap.rrect;rSize=5;strokeColor=#DFDFDF;html=1;whiteSpace=wrap;fillColor=#ffffff;fontColor=#000000;verticalAlign=bottom;align=left;spacing=20;fontSize=14;" vertex="1" parent="1">
          <mxGeometry x="1030" y="480" width="130" height="170" as="geometry" />
        </mxCell>
        <mxCell id="JEKIaxqcYG2OeNhr2V8x-20" value="Image cap" style="html=1;shadow=0;dashed=0;shape=mxgraph.bootstrap.topButton;rSize=5;perimeter=none;whiteSpace=wrap;fillColor=#868E96;strokeColor=#DFDFDF;fontColor=#DEE2E6;resizeWidth=1;fontSize=18;" vertex="1" parent="JEKIaxqcYG2OeNhr2V8x-19">
          <mxGeometry width="130" height="100" relative="1" as="geometry" />
        </mxCell>
        <mxCell id="JEKIaxqcYG2OeNhr2V8x-21" value="Position&lt;div&gt;Organization&lt;/div&gt;&lt;div&gt;Location&lt;/div&gt;" style="html=1;shadow=0;dashed=0;shape=mxgraph.bootstrap.rrect;rSize=5;strokeColor=#DFDFDF;html=1;whiteSpace=wrap;fillColor=#ffffff;fontColor=#000000;verticalAlign=bottom;align=left;spacing=20;fontSize=14;" vertex="1" parent="1">
          <mxGeometry x="710" y="680" width="130" height="170" as="geometry" />
        </mxCell>
        <mxCell id="JEKIaxqcYG2OeNhr2V8x-22" value="Image cap" style="html=1;shadow=0;dashed=0;shape=mxgraph.bootstrap.topButton;rSize=5;perimeter=none;whiteSpace=wrap;fillColor=#868E96;strokeColor=#DFDFDF;fontColor=#DEE2E6;resizeWidth=1;fontSize=18;" vertex="1" parent="JEKIaxqcYG2OeNhr2V8x-21">
          <mxGeometry width="130" height="100" relative="1" as="geometry" />
        </mxCell>
        <mxCell id="JEKIaxqcYG2OeNhr2V8x-23" value="Position&lt;div&gt;Organization&lt;/div&gt;&lt;div&gt;Location&lt;/div&gt;" style="html=1;shadow=0;dashed=0;shape=mxgraph.bootstrap.rrect;rSize=5;strokeColor=#DFDFDF;html=1;whiteSpace=wrap;fillColor=#ffffff;fontColor=#000000;verticalAlign=bottom;align=left;spacing=20;fontSize=14;" vertex="1" parent="1">
          <mxGeometry x="870" y="680" width="130" height="170" as="geometry" />
        </mxCell>
        <mxCell id="JEKIaxqcYG2OeNhr2V8x-24" value="Image cap" style="html=1;shadow=0;dashed=0;shape=mxgraph.bootstrap.topButton;rSize=5;perimeter=none;whiteSpace=wrap;fillColor=#868E96;strokeColor=#DFDFDF;fontColor=#DEE2E6;resizeWidth=1;fontSize=18;" vertex="1" parent="JEKIaxqcYG2OeNhr2V8x-23">
          <mxGeometry width="130" height="100" relative="1" as="geometry" />
        </mxCell>
        <mxCell id="JEKIaxqcYG2OeNhr2V8x-25" value="Position&lt;div&gt;Organization&lt;/div&gt;&lt;div&gt;Location&lt;/div&gt;" style="html=1;shadow=0;dashed=0;shape=mxgraph.bootstrap.rrect;rSize=5;strokeColor=#DFDFDF;html=1;whiteSpace=wrap;fillColor=#ffffff;fontColor=#000000;verticalAlign=bottom;align=left;spacing=20;fontSize=14;" vertex="1" parent="1">
          <mxGeometry x="1030" y="680" width="130" height="170" as="geometry" />
        </mxCell>
        <mxCell id="JEKIaxqcYG2OeNhr2V8x-26" value="Image cap" style="html=1;shadow=0;dashed=0;shape=mxgraph.bootstrap.topButton;rSize=5;perimeter=none;whiteSpace=wrap;fillColor=#868E96;strokeColor=#DFDFDF;fontColor=#DEE2E6;resizeWidth=1;fontSize=18;" vertex="1" parent="JEKIaxqcYG2OeNhr2V8x-25">
          <mxGeometry width="130" height="100" relative="1" as="geometry" />
        </mxCell>
        <mxCell id="JEKIaxqcYG2OeNhr2V8x-27" value="Results:" style="text;html=1;align=center;verticalAlign=middle;whiteSpace=wrap;rounded=0;" vertex="1" parent="1">
          <mxGeometry x="710" y="450" width="60" height="30" as="geometry" />
        </mxCell>
        <mxCell id="JEKIaxqcYG2OeNhr2V8x-28" value="Footer" style="rounded=0;whiteSpace=wrap;html=1;" vertex="1" parent="1">
          <mxGeometry x="660" y="900" width="550" height="60" as="geometry" />
        </mxCell>
        <mxCell id="JEKIaxqcYG2OeNhr2V8x-29" value="Footer" style="rounded=0;whiteSpace=wrap;html=1;" vertex="1" parent="1">
          <mxGeometry x="50" y="540" width="550" height="60" as="geometry" />
        </mxCell>
        <mxCell id="JEKIaxqcYG2OeNhr2V8x-30" value="&lt;font style=&quot;font-size: 23px;&quot;&gt;&lt;b&gt;Internship Search Engine&lt;/b&gt;&lt;/font&gt;" style="text;html=1;align=center;verticalAlign=middle;whiteSpace=wrap;rounded=0;" vertex="1" parent="1">
          <mxGeometry x="810" y="100" width="190" height="30" as="geometry" />
        </mxCell>
        <mxCell id="JEKIaxqcYG2OeNhr2V8x-31" value="&lt;h1 style=&quot;margin-top: 0px;&quot;&gt;&lt;span style=&quot;background-color: transparent; color: light-dark(rgb(0, 0, 0), rgb(255, 255, 255));&quot;&gt;Q1:&lt;/span&gt;&lt;/h1&gt;&lt;h1 style=&quot;margin-top: 0px;&quot;&gt;&lt;span style=&quot;background-color: transparent; color: light-dark(rgb(0, 0, 0), rgb(255, 255, 255)); font-size: 12px; font-weight: normal;&quot;&gt;Lorem ipsum dolor sit amet, consectetur adipisicing elit, sed do eiusmod tempor.&lt;/span&gt;&lt;/h1&gt;&lt;div&gt;&lt;span style=&quot;background-color: transparent; color: light-dark(rgb(0, 0, 0), rgb(255, 255, 255)); font-size: 12px; font-weight: normal;&quot;&gt;&lt;br&gt;&lt;/span&gt;&lt;/div&gt;" style="text;html=1;whiteSpace=wrap;overflow=hidden;rounded=0;align=center;" vertex="1" parent="1">
          <mxGeometry x="1437.5" y="260" width="235" height="120" as="geometry" />
        </mxCell>
        <mxCell id="JEKIaxqcYG2OeNhr2V8x-32" value="&lt;h1 style=&quot;margin-top: 0px;&quot;&gt;&lt;span style=&quot;background-color: transparent; color: light-dark(rgb(0, 0, 0), rgb(255, 255, 255));&quot;&gt;Q2:&lt;/span&gt;&lt;/h1&gt;&lt;h1 style=&quot;margin-top: 0px;&quot;&gt;&lt;span style=&quot;background-color: transparent; color: light-dark(rgb(0, 0, 0), rgb(255, 255, 255)); font-size: 12px; font-weight: normal;&quot;&gt;Lorem ipsum dolor sit amet, consectetur adipisicing elit, sed do eiusmod tempor.&lt;/span&gt;&lt;/h1&gt;&lt;div&gt;&lt;span style=&quot;background-color: transparent; color: light-dark(rgb(0, 0, 0), rgb(255, 255, 255)); font-size: 12px; font-weight: normal;&quot;&gt;&lt;br&gt;&lt;/span&gt;&lt;/div&gt;" style="text;html=1;whiteSpace=wrap;overflow=hidden;rounded=0;align=center;" vertex="1" parent="1">
          <mxGeometry x="1440" y="390" width="235" height="120" as="geometry" />
        </mxCell>
        <mxCell id="JEKIaxqcYG2OeNhr2V8x-33" value="&lt;h1 style=&quot;margin-top: 0px;&quot;&gt;&lt;span style=&quot;background-color: transparent; color: light-dark(rgb(0, 0, 0), rgb(255, 255, 255));&quot;&gt;Q3:&lt;/span&gt;&lt;/h1&gt;&lt;h1 style=&quot;margin-top: 0px;&quot;&gt;&lt;span style=&quot;background-color: transparent; color: light-dark(rgb(0, 0, 0), rgb(255, 255, 255)); font-size: 12px; font-weight: normal;&quot;&gt;Lorem ipsum dolor sit amet, consectetur adipisicing elit, sed do eiusmod tempor.&lt;/span&gt;&lt;/h1&gt;&lt;div&gt;&lt;span style=&quot;background-color: transparent; color: light-dark(rgb(0, 0, 0), rgb(255, 255, 255)); font-size: 12px; font-weight: normal;&quot;&gt;&lt;br&gt;&lt;/span&gt;&lt;/div&gt;" style="text;html=1;whiteSpace=wrap;overflow=hidden;rounded=0;align=center;" vertex="1" parent="1">
          <mxGeometry x="1437.5" y="540" width="235" height="120" as="geometry" />
        </mxCell>
        <mxCell id="JEKIaxqcYG2OeNhr2V8x-34" value="Footer" style="rounded=0;whiteSpace=wrap;html=1;" vertex="1" parent="1">
          <mxGeometry x="1280" y="670" width="550" height="60" as="geometry" />
        </mxCell>
      </root>
    </mxGraphModel>
  </diagram>
</mxfile>
